# xmcd
#
# Track frame offsets:
# 150
# 11730
# 25170
# 39430
# 53780
# 68430
#
# Disc length: 1163 seconds
#
#
# Revision: 0
# Processed by: cddbd v1.5.2PL0 Copyright (c) Steve Scherf et al.
# Submitted via: FreeRIP 2.95 
#
DISCID=40048906
DTITLE=Clint Miller - Johnny Cash Tribute
DYEAR=1900
DGENRE=Country
TTITLE0=That's Enough
TTITLE1=I Was There When It Happened
TTITLE2=Belshazzar
TTITLE3=Kneeling Drunkard's Plea
TTITLE4=One Of These Days
TTITLE5=Troublesome Waters
EXTD=
EXTT0=
EXTT1=
EXTT2=
EXTT3=
EXTT4=
EXTT5=
PLAYORDER=
